#!OML:ASF F:\VICON\USERDATA\INSTALL\rory3\rory3.ASF
:FULLY-SPECIFIED
:DEGREES
27
root 0.523000656655956 17.956451280674262 -3.3257778292942906 3.131834422603505 3.9811522394299166 1.3677505817736018
lfemur 8.632913529591669 0.3444200420064769 -27.613331426503393
ltibia 20.98227083183227
lfoot 2.716264232450824 -11.19423184499051
ltoes -9.485853830426038
rfemur -27.438828719846654 7.6108497230559315 19.03515493383778
rtibia 30.092038253825358
rfoot -3.237472282459523 -21.927638513665176
rtoes -9.089537628363075
lowerback 11.341625189697385 -0.7115400742919802 -3.871798630754685
upperback -0.3156853222297902 -1.5831227000007577 1.1873834189223218
thorax -6.682316414464288 -0.6580259769607126 4.256818407078283
lowerneck -19.328173662045476 -2.897403828738835 -2.3523092950832107
upperneck 16.894494618543927 -3.5224909011590935 1.4279223142105868
head 8.63524335311572 -1.6116372672648924 0.2576658781853769
lclavicle -2.261153400510946e-15 6.850911968585165e-16
lhumerus -22.372956221964024 -13.496178220732004 89.39137600421029
lradius 75.039629439604
lwrist 21.646744587913034
lhand -27.90847830567569 12.911879923140551
lfingers 7.125019999999999
lthumb -1.36332889127329 42.953574507272684
rclavicle -2.263719851495254e-15 6.833165092026511e-16
rhumerus -51.0232295478206 -13.571364977819968 -83.73383301733777
rradius 66.08197953840633
rwrist -2.486034662811104
rhand -17.090657260966097 30.988384766385224
rfingers 7.125019999999999
rthumb 8.80776375907397 1.1321993809207105
28
root 0.42365006586683535 17.852135739989983 -2.28945354656717 2.9766772658352547 4.37596363255878 1.146719842469257
lfemur 10.57636289369249 -0.9801559765234247 -26.653782581500877
ltibia 24.496602127808742
lfoot 4.860223893339297 -13.746016654642462
ltoes -9.404462388787831
rfemur -27.452849690271936 5.970828875433789 20.10372584000016
rtibia 26.91541502168569
rfoot -4.238935480405264 -16.579135277389565
rtoes -8.896785533503273
lowerback 11.53371930640686 -0.7672811847202055 -3.892526122912824
upperback -0.14610459000451456 -1.6403966566013883 1.5300254171685301
thorax -6.6502578621787976 -0.6783499005463522 4.507977467923459
lowerneck -19.41860597710421 -2.808759758539568 -2.412497694605907
upperneck 16.999647550448458 -3.3967644682842266 1.2848327716457484
head 8.648633100558403 -1.5577010296800522 0.22122417834074617
lclavicle -2.262289417346573e-15 6.842947388625267e-16
lhumerus -22.336322623706515 -13.040642282035739 89.63337389345229
lradius 75.25418558660003
lwrist 21.64989439920522
lhand -28.16071608238273 12.563103611533593
lfingers 7.125019999999999
lthumb -1.6408992435387015 42.64329744145041
rclavicle -2.2628639521988712e-15 6.839166144299361e-16
rhumerus -50.905558883491686 -14.50130222921155 -83.19813528377324
rradius 65.36539341049468
rwrist -1.7667757633252896
rhand -17.151753268635485 30.921739048058498
rfingers 7.125019999999999
rthumb 8.882868555927352 1.2986372171375289
29
root 0.31816174883687537 17.89908637346074 -1.3865658095989595 2.4456157376962318 4.816000536765293 0.636611608920675
lfemur 10.96539554049178 -2.5742333856408166 -25.247059482306838
ltibia 31.140191761612478
lfoot 9.732431007533886 -15.588574651701629
ltoes -5.472230361397398
rfemur -26.335378801530304 5.592071813410941 21.17060629111349
rtibia 27.863361307622714
rfoot -1.1855262374507407 -11.61469598595701
rtoes -4.635047159267959
lowerback 11.80498217225831 -0.8722334647778234 -3.3710287324901733
upperback -0.028062470799451067 -1.714621196744115 1.9828579340464734
thorax -6.722573866864851 -0.7193905411342827 4.458524537806639
lowerneck -19.24664575296853 -2.641818072050757 -2.4322316668495945
upperneck 17.1148517624721 -3.1222994552715226 0.9423537097182343
head 8.589262240852074 -1.4635042866364278 0.1491318412303725
lclavicle -2.2626625826739224e-15 6.840349167441248e-16
lhumerus -24.018586732214455 -12.030048289134033 90.09426731555774
lradius 75.0794541988153
lwrist 21.404396422378515
lhand -28.33240945109327 12.700565091550848
lfingers 7.125019999999999
lthumb -1.7558926953403857 42.635904569215626
rclavicle -2.262499278296058e-15 6.841723258625938e-16
rhumerus -50.42252715939141 -15.009573288879523 -82.78645157959056
rradius 64.45896330275512
rwrist -0.994098839083291
rhand -17.145178405732846 31.04802714919039
rfingers 7.125019999999999
rthumb 8.874100256493767 1.1858455680582742
30
root 0.22454220241216266 18.123193110500047 -0.7336537445455615 1.9142399527594318 4.199514646669226 -0.9789195403614752
lfemur 8.285324371880659 -2.2936269259872346 -22.234288505027443
ltibia 41.09679435528201
lfoot 18.346435725838884 -17.06849797293893
ltoes 2.1760138060086955
rfemur -24.10003387737859 6.079873536156505 23.414462315127345
rtibia 29.169651107550546
rfoot 0.988804435341998 -6.279566695229055
rtoes 5.026349311901501
lowerback 12.068654661278552 -0.7441609545004431 -1.9039902537395157
upperback -0.08721098158455709 -1.2847781529576872 2.6801561873526767
thorax -6.90431196140875 -0.5401039036201543 4.033795108913776
lowerneck -19.016504724182887 -2.4297069095238633 -2.514520462553432
upperneck 17.5201959760655 -2.749270884855875 0.5516389087660916
head 8.637790761556827 -1.3436359850492599 0.07429061986877944
lclavicle -2.26287856898574e-15 6.838772359900616e-16
lhumerus -27.30974298831196 -10.815886755587034 90.70542785809087
lradius 74.33138553589988
lwrist 20.865507807692882
lhand -28.02362847037232 13.085510470349208
lfingers 7.125019999999999
lthumb -1.5485437619778886 42.84202732754454
rclavicle -2.261985874643639e-15 6.845322191818589e-16
rhumerus -49.4025235361223 -14.954136082537808 -82.73611690922053
rradius 63.68293612498165
rwrist -0.4189467412327694
rhand -17.03835021605225 30.89338886397352
rfingers 7.125019999999999
rthumb 9.055216835895543 1.098664526663948
